<svg xmlns="http://www.w3.org/2000/svg" width="1228" height="748" viewBox="0 0 1228 748">
<rect width="100%" height="100%" rx="16" fill="#0b0b0b"/>
<g font-family="SFMono-Regular,Menlo,Consolas,monospace" font-size="15" xml:space="preserve"><rect x="24" y="24" width="10" height="20" fill="rgba(23,23,23,1)"/><text x="24" y="39" fill="rgba(255,255,255,1)"> </text><rect x="34" y="24" width="180" height="20" fill="rgba(23,23,23,1)"/><text x="34" y="39" fill="rgba(34,211,238,1)" font-weight="700">LocalTerminal Lite</text><rect x="214" y="24" width="20" height="20" fill="rgba(23,23,23,1)"/><text x="214" y="39" fill="rgba(255,255,255,1)">  </text><rect x="234" y="24" width="90" height="20" fill="rgba(23,23,23,1)"/><text x="234" y="39" fill="rgba(74,222,128,1)">● running</text><rect x="324" y="24" width="20" height="20" fill="rgba(23,23,23,1)"/><text x="324" y="39" fill="rgba(255,255,255,1)">  </text><rect x="344" y="24" width="60" height="20" fill="rgba(23,23,23,1)"/><text x="344" y="39" fill="rgba(154,154,154,1)">v1.0.1</text><rect x="404" y="24" width="800" height="20" fill="rgba(23,23,23,1)"/><text x="404" y="39" fill="rgba(255,255,255,1)">                                                                                </text><rect x="24" y="44" width="10" height="20" fill="rgba(251,113,133,1)"/><text x="24" y="59" fill="rgba(255,255,255,1)"> </text><rect x="34" y="44" width="320" height="20" fill="rgba(251,113,133,1)"/><text x="34" y="59" fill="rgba(255,255,255,1)" font-weight="700">! 2 session(s) need a controller</text><rect x="354" y="44" width="850" height="20" fill="rgba(251,113,133,1)"/><text x="354" y="59" fill="rgba(255,255,255,1)">                                                                                     </text><rect x="24" y="64" width="10" height="20" fill="rgba(23,23,23,1)"/><text x="24" y="79" fill="rgba(255,255,255,1)"> </text><rect x="34" y="64" width="10" height="20" fill="rgba(7,89,133,1)"/><text x="34" y="79" fill="rgba(255,255,255,1)"> </text><rect x="44" y="64" width="100" height="20" fill="rgba(7,89,133,1)"/><text x="44" y="79" fill="rgba(248,250,252,1)" font-weight="700">1 Overview</text><rect x="144" y="64" width="10" height="20" fill="rgba(7,89,133,1)"/><text x="144" y="79" fill="rgba(255,255,255,1)"> </text><rect x="154" y="64" width="10" height="20" fill="rgba(23,23,23,1)"/><text x="154" y="79" fill="rgba(255,255,255,1)"> </text><rect x="164" y="64" width="100" height="20" fill="rgba(23,23,23,1)"/><text x="164" y="79" fill="rgba(154,154,154,1)" font-weight="700">2 Sessions</text><rect x="264" y="64" width="20" height="20" fill="rgba(23,23,23,1)"/><text x="264" y="79" fill="rgba(255,255,255,1)">  </text><rect x="284" y="64" width="100" height="20" fill="rgba(23,23,23,1)"/><text x="284" y="79" fill="rgba(154,154,154,1)" font-weight="700">3 Messages</text><rect x="384" y="64" width="20" height="20" fill="rgba(23,23,23,1)"/><text x="384" y="79" fill="rgba(255,255,255,1)">  </text><rect x="404" y="64" width="60" height="20" fill="rgba(23,23,23,1)"/><text x="404" y="79" fill="rgba(154,154,154,1)" font-weight="700">4 Diff</text><rect x="464" y="64" width="20" height="20" fill="rgba(23,23,23,1)"/><text x="464" y="79" fill="rgba(255,255,255,1)">  </text><rect x="484" y="64" width="120" height="20" fill="rgba(23,23,23,1)"/><text x="484" y="79" fill="rgba(154,154,154,1)" font-weight="700">5 Extensions</text><rect x="604" y="64" width="20" height="20" fill="rgba(23,23,23,1)"/><text x="604" y="79" fill="rgba(255,255,255,1)">  </text><rect x="624" y="64" width="100" height="20" fill="rgba(23,23,23,1)"/><text x="624" y="79" fill="rgba(154,154,154,1)" font-weight="700">6 Settings</text><rect x="724" y="64" width="20" height="20" fill="rgba(23,23,23,1)"/><text x="724" y="79" fill="rgba(255,255,255,1)">  </text><rect x="744" y="64" width="60" height="20" fill="rgba(23,23,23,1)"/><text x="744" y="79" fill="rgba(154,154,154,1)" font-weight="700">7 Logs</text><rect x="804" y="64" width="400" height="20" fill="rgba(23,23,23,1)"/><text x="804" y="79" fill="rgba(255,255,255,1)">                                        </text><rect x="24" y="84" width="1180" height="20" fill="rgba(23,23,23,1)"/><text x="24" y="99" fill="rgba(86,86,86,1)">──────────────────────────────────────────────────────────────────────────────────────────────────────────────────────</text><rect x="24" y="104" width="1170" height="20" fill="rgba(23,23,23,1)"/><text x="24" y="119" fill="rgba(255,255,255,1)">                                                                                                                     </text><rect x="1194" y="104" width="10" height="20" fill="rgba(37,37,39,1)"/><text x="1194" y="119" fill="rgba(154,158,163,1)">█</text><rect x="24" y="124" width="10" height="20" fill="rgba(23,23,23,1)"/><text x="24" y="139" fill="rgba(255,255,255,1)"> </text><rect x="34" y="124" width="60" height="20" fill="rgba(23,23,23,1)"/><text x="34" y="139" fill="rgba(242,242,242,1)" font-weight="700">Server</text><rect x="94" y="124" width="1100" height="20" fill="rgba(23,23,23,1)"/><text x="94" y="139" fill="rgba(255,255,255,1)">                                                                                                              </text><rect x="1194" y="124" width="10" height="20" fill="rgba(37,37,39,1)"/><text x="1194" y="139" fill="rgba(154,158,163,1)">█</text><rect x="24" y="144" width="1170" height="20" fill="rgba(23,23,23,1)"/><text x="24" y="159" fill="rgba(255,255,255,1)">                                                                                                                     </text><rect x="1194" y="144" width="10" height="20" fill="rgba(37,37,39,1)"/><text x="1194" y="159" fill="rgba(154,158,163,1)">█</text><rect x="24" y="164" width="10" height="20" fill="rgba(23,23,23,1)"/><text x="24" y="179" fill="rgba(255,255,255,1)"> </text><rect x="34" y="164" width="210" height="20" fill="rgba(23,23,23,1)"/><text x="34" y="179" fill="rgba(242,242,242,1)">Bind: 127.0.0.1:55284</text><rect x="244" y="164" width="950" height="20" fill="rgba(23,23,23,1)"/><text x="244" y="179" fill="rgba(255,255,255,1)">                                                                                               </text><rect x="1194" y="164" width="10" height="20" fill="rgba(37,37,39,1)"/><text x="1194" y="179" fill="rgba(154,158,163,1)">█</text><rect x="24" y="184" width="1170" height="20" fill="rgba(23,23,23,1)"/><text x="24" y="199" fill="rgba(255,255,255,1)">                                                                                                                     </text><rect x="1194" y="184" width="10" height="20" fill="rgba(37,37,39,1)"/><text x="1194" y="199" fill="rgba(154,158,163,1)">█</text><rect x="24" y="204" width="10" height="20" fill="rgba(23,23,23,1)"/><text x="24" y="219" fill="rgba(255,255,255,1)"> </text><rect x="34" y="204" width="520" height="20" fill="rgba(23,23,23,1)"/><text x="34" y="219" fill="rgba(242,242,242,1)">Workspace: /private/tmp/localterminal-docs-workspace</text><rect x="554" y="204" width="640" height="20" fill="rgba(23,23,23,1)"/><text x="554" y="219" fill="rgba(255,255,255,1)">                                                                </text><rect x="1194" y="204" width="10" height="20" fill="rgba(37,37,39,1)"/><text x="1194" y="219" fill="rgba(154,158,163,1)">█</text><rect x="24" y="224" width="1170" height="20" fill="rgba(23,23,23,1)"/><text x="24" y="239" fill="rgba(255,255,255,1)">                                                                                                                     </text><rect x="1194" y="224" width="10" height="20" fill="rgba(37,37,39,1)"/><text x="1194" y="239" fill="rgba(154,158,163,1)">█</text><rect x="24" y="244" width="10" height="20" fill="rgba(23,23,23,1)"/><text x="24" y="259" fill="rgba(255,255,255,1)"> </text><rect x="34" y="244" width="510" height="20" fill="rgba(23,23,23,1)"/><text x="34" y="259" fill="rgba(242,242,242,1)">Apps MCP URL: https://lite.example.com/mcp/••••••••</text><rect x="544" y="244" width="650" height="20" fill="rgba(23,23,23,1)"/><text x="544" y="259" fill="rgba(255,255,255,1)">                                                                 </text><rect x="1194" y="244" width="10" height="20" fill="rgba(37,37,39,1)"/><text x="1194" y="259" fill="rgba(154,158,163,1)">█</text><rect x="24" y="264" width="1170" height="20" fill="rgba(23,23,23,1)"/><text x="24" y="279" fill="rgba(255,255,255,1)">                                                                                                                     </text><rect x="1194" y="264" width="10" height="20" fill="rgba(37,37,39,1)"/><text x="1194" y="279" fill="rgba(154,158,163,1)">█</text><rect x="24" y="284" width="10" height="20" fill="rgba(23,23,23,1)"/><text x="24" y="299" fill="rgba(255,255,255,1)"> </text><rect x="34" y="284" width="540" height="20" fill="rgba(23,23,23,1)"/><text x="34" y="299" fill="rgba(242,242,242,1)">Actions OpenAPI: https://lite.example.com/openapi.json</text><rect x="574" y="284" width="620" height="20" fill="rgba(23,23,23,1)"/><text x="574" y="299" fill="rgba(255,255,255,1)">                                                              </text><rect x="1194" y="284" width="10" height="20" fill="rgba(37,37,39,1)"/><text x="1194" y="299" fill="rgba(154,158,163,1)">█</text><rect x="24" y="304" width="1170" height="20" fill="rgba(23,23,23,1)"/><text x="24" y="319" fill="rgba(255,255,255,1)">                                                                                                                     </text><rect x="1194" y="304" width="10" height="20" fill="rgba(37,37,39,1)"/><text x="1194" y="319" fill="rgba(154,158,163,1)">█</text><rect x="24" y="324" width="10" height="20" fill="rgba(23,23,23,1)"/><text x="24" y="339" fill="rgba(255,255,255,1)"> </text><rect x="34" y="324" width="260" height="20" fill="rgba(23,23,23,1)"/><text x="34" y="339" fill="rgba(242,242,242,1)">Actions token: docs-a…alue</text><rect x="294" y="324" width="900" height="20" fill="rgba(23,23,23,1)"/><text x="294" y="339" fill="rgba(255,255,255,1)">                                                                                          </text><rect x="1194" y="324" width="10" height="20" fill="rgba(37,37,39,1)"/><text x="1194" y="339" fill="rgba(154,158,163,1)">█</text><rect x="24" y="344" width="1170" height="20" fill="rgba(23,23,23,1)"/><text x="24" y="359" fill="rgba(255,255,255,1)">                                                                                                                     </text><rect x="1194" y="344" width="10" height="20" fill="rgba(37,37,39,1)"/><text x="1194" y="359" fill="rgba(154,158,163,1)">█</text><rect x="24" y="364" width="1170" height="20" fill="rgba(23,23,23,1)"/><text x="24" y="379" fill="rgba(255,255,255,1)">                                                                                                                     </text><rect x="1194" y="364" width="10" height="20" fill="rgba(37,37,39,1)"/><text x="1194" y="379" fill="rgba(154,158,163,1)">█</text><rect x="24" y="384" width="1170" height="20" fill="rgba(23,23,23,1)"/><text x="24" y="399" fill="rgba(255,255,255,1)">                                                                                                                     </text><rect x="1194" y="384" width="10" height="20" fill="rgba(37,37,39,1)"/><text x="1194" y="399" fill="rgba(154,158,163,1)">█</text><rect x="24" y="404" width="10" height="20" fill="rgba(23,23,23,1)"/><text x="24" y="419" fill="rgba(255,255,255,1)"> </text><rect x="34" y="404" width="100" height="20" fill="rgba(23,23,23,1)"/><text x="34" y="419" fill="rgba(242,242,242,1)" font-weight="700">Live state</text><rect x="134" y="404" width="1060" height="20" fill="rgba(23,23,23,1)"/><text x="134" y="419" fill="rgba(255,255,255,1)">                                                                                                          </text><rect x="1194" y="404" width="10" height="20" fill="rgba(37,37,39,1)"/><text x="1194" y="419" fill="rgba(154,158,163,1)">█</text><rect x="24" y="424" width="1170" height="20" fill="rgba(23,23,23,1)"/><text x="24" y="439" fill="rgba(255,255,255,1)">                                                                                                                     </text><rect x="1194" y="424" width="10" height="20" fill="rgba(37,37,39,1)"/><text x="1194" y="439" fill="rgba(154,158,163,1)">█</text><rect x="24" y="444" width="10" height="20" fill="rgba(23,23,23,1)"/><text x="24" y="459" fill="rgba(255,255,255,1)"> </text><rect x="34" y="444" width="190" height="20" fill="rgba(23,23,23,1)"/><text x="34" y="459" fill="rgba(242,242,242,1)">Logical sessions: 1</text><rect x="224" y="444" width="970" height="20" fill="rgba(23,23,23,1)"/><text x="224" y="459" fill="rgba(255,255,255,1)">                                                                                                 </text><rect x="1194" y="444" width="10" height="20" fill="rgba(37,37,39,1)"/><text x="1194" y="459" fill="rgba(154,158,163,1)">█</text><rect x="24" y="464" width="1170" height="20" fill="rgba(23,23,23,1)"/><text x="24" y="479" fill="rgba(255,255,255,1)">                                                                                                                     </text><rect x="1194" y="464" width="10" height="20" fill="rgba(37,37,39,1)"/><text x="1194" y="479" fill="rgba(154,158,163,1)">█</text><rect x="24" y="484" width="10" height="20" fill="rgba(23,23,23,1)"/><text x="24" y="499" fill="rgba(255,255,255,1)"> </text><rect x="34" y="484" width="150" height="20" fill="rgba(23,23,23,1)"/><text x="34" y="499" fill="rgba(242,242,242,1)">Work records: 4</text><rect x="184" y="484" width="1010" height="20" fill="rgba(23,23,23,1)"/><text x="184" y="499" fill="rgba(255,255,255,1)">                                                                                                     </text><rect x="1194" y="484" width="10" height="20" fill="rgba(37,37,39,1)"/><text x="1194" y="499" fill="rgba(154,158,163,1)">█</text><rect x="24" y="504" width="1170" height="20" fill="rgba(23,23,23,1)"/><text x="24" y="519" fill="rgba(255,255,255,1)">                                                                                                                     </text><rect x="1194" y="504" width="10" height="20" fill="rgba(37,37,39,1)"/><text x="1194" y="519" fill="rgba(255,255,255,1)"> </text><rect x="24" y="524" width="10" height="20" fill="rgba(23,23,23,1)"/><text x="24" y="539" fill="rgba(255,255,255,1)"> </text><rect x="34" y="524" width="170" height="20" fill="rgba(23,23,23,1)"/><text x="34" y="539" fill="rgba(242,242,242,1)">MCP transports: 0</text><rect x="204" y="524" width="990" height="20" fill="rgba(23,23,23,1)"/><text x="204" y="539" fill="rgba(255,255,255,1)">                                                                                                   </text><rect x="1194" y="524" width="10" height="20" fill="rgba(37,37,39,1)"/><text x="1194" y="539" fill="rgba(255,255,255,1)"> </text><rect x="24" y="544" width="1170" height="20" fill="rgba(23,23,23,1)"/><text x="24" y="559" fill="rgba(255,255,255,1)">                                                                                                                     </text><rect x="1194" y="544" width="10" height="20" fill="rgba(37,37,39,1)"/><text x="1194" y="559" fill="rgba(255,255,255,1)"> </text><rect x="24" y="564" width="10" height="20" fill="rgba(23,23,23,1)"/><text x="24" y="579" fill="rgba(255,255,255,1)"> </text><rect x="34" y="564" width="110" height="20" fill="rgba(23,23,23,1)"/><text x="34" y="579" fill="rgba(242,242,242,1)">Messages: 2</text><rect x="144" y="564" width="1050" height="20" fill="rgba(23,23,23,1)"/><text x="144" y="579" fill="rgba(255,255,255,1)">                                                                                                         </text><rect x="1194" y="564" width="10" height="20" fill="rgba(37,37,39,1)"/><text x="1194" y="579" fill="rgba(255,255,255,1)"> </text><rect x="24" y="584" width="1170" height="20" fill="rgba(23,23,23,1)"/><text x="24" y="599" fill="rgba(255,255,255,1)">                                                                                                                     </text><rect x="1194" y="584" width="10" height="20" fill="rgba(37,37,39,1)"/><text x="1194" y="599" fill="rgba(255,255,255,1)"> </text><rect x="24" y="604" width="10" height="20" fill="rgba(23,23,23,1)"/><text x="24" y="619" fill="rgba(255,255,255,1)"> </text><rect x="34" y="604" width="170" height="20" fill="rgba(23,23,23,1)"/><text x="34" y="619" fill="rgba(242,242,242,1)">Unacked events: 1</text><rect x="204" y="604" width="990" height="20" fill="rgba(23,23,23,1)"/><text x="204" y="619" fill="rgba(255,255,255,1)">                                                                                                   </text><rect x="1194" y="604" width="10" height="20" fill="rgba(37,37,39,1)"/><text x="1194" y="619" fill="rgba(255,255,255,1)"> </text><rect x="24" y="624" width="1170" height="20" fill="rgba(23,23,23,1)"/><text x="24" y="639" fill="rgba(255,255,255,1)">                                                                                                                     </text><rect x="1194" y="624" width="10" height="20" fill="rgba(37,37,39,1)"/><text x="1194" y="639" fill="rgba(255,255,255,1)"> </text><rect x="24" y="644" width="1170" height="20" fill="rgba(23,23,23,1)"/><text x="24" y="659" fill="rgba(255,255,255,1)">                                                                                                                     </text><rect x="1194" y="644" width="10" height="20" fill="rgba(37,37,39,1)"/><text x="1194" y="659" fill="rgba(255,255,255,1)"> </text><rect x="24" y="664" width="1170" height="20" fill="rgba(23,23,23,1)"/><text x="24" y="679" fill="rgba(255,255,255,1)">                                                                                                                     </text><rect x="1194" y="664" width="10" height="20" fill="rgba(37,37,39,1)"/><text x="1194" y="679" fill="rgba(255,255,255,1)"> </text><rect x="24" y="684" width="10" height="20" fill="rgba(23,23,23,1)"/><text x="24" y="699" fill="rgba(255,255,255,1)"> </text><rect x="34" y="684" width="420" height="20" fill="rgba(23,23,23,1)"/><text x="34" y="699" fill="rgba(250,204,21,1)">Only three facade tools are model-visible.</text><rect x="454" y="684" width="740" height="20" fill="rgba(23,23,23,1)"/><text x="454" y="699" fill="rgba(255,255,255,1)">                                                                          </text><rect x="1194" y="684" width="10" height="20" fill="rgba(37,37,39,1)"/><text x="1194" y="699" fill="rgba(255,255,255,1)"> </text><rect x="24" y="704" width="10" height="20" fill="rgba(41,41,41,1)"/><text x="24" y="719" fill="rgba(255,255,255,1)"> </text><rect x="34" y="704" width="690" height="20" fill="rgba(41,41,41,1)"/><text x="34" y="719" fill="rgba(242,242,242,1)" font-weight="700">1–7/Tab page   wheel/↑↓ scroll   c configure   v credentials   q quit</text><rect x="724" y="704" width="480" height="20" fill="rgba(41,41,41,1)"/><text x="724" y="719" fill="rgba(255,255,255,1)">                                                </text></g>
</svg>
