<svg xmlns="http://www.w3.org/2000/svg" width="1228" height="748" viewBox="0 0 1228 748">
<rect width="100%" height="100%" rx="16" fill="#0b0b0b"/>
<g font-family="SFMono-Regular,Menlo,Consolas,monospace" font-size="15" xml:space="preserve"><rect x="24" y="24" width="10" height="20" fill="rgba(23,23,23,1)"/><text x="24" y="39" fill="rgba(255,255,255,1)"> </text><rect x="34" y="24" width="180" height="20" fill="rgba(23,23,23,1)"/><text x="34" y="39" fill="rgba(34,211,238,1)" font-weight="700">LocalTerminal Lite</text><rect x="214" y="24" width="20" height="20" fill="rgba(23,23,23,1)"/><text x="214" y="39" fill="rgba(255,255,255,1)">  </text><rect x="234" y="24" width="80" height="20" fill="rgba(23,23,23,1)"/><text x="234" y="39" fill="rgba(74,222,128,1)">● 运行中</text><rect x="314" y="24" width="20" height="20" fill="rgba(23,23,23,1)"/><text x="314" y="39" fill="rgba(255,255,255,1)">  </text><rect x="334" y="24" width="60" height="20" fill="rgba(23,23,23,1)"/><text x="334" y="39" fill="rgba(154,154,154,1)">v1.1.2</text><rect x="394" y="24" width="810" height="20" fill="rgba(23,23,23,1)"/><text x="394" y="39" fill="rgba(255,255,255,1)">                                                                                 </text><rect x="24" y="44" width="10" height="20" fill="rgba(251,113,133,1)"/><text x="24" y="59" fill="rgba(255,255,255,1)"> </text><rect x="34" y="44" width="230" height="20" fill="rgba(251,113,133,1)"/><text x="34" y="59" fill="rgba(255,255,255,1)" font-weight="700">! 2 个 session 等待接管</text><rect x="264" y="44" width="940" height="20" fill="rgba(251,113,133,1)"/><text x="264" y="59" fill="rgba(255,255,255,1)">                                                                                              </text><rect x="24" y="64" width="20" height="20" fill="rgba(23,23,23,1)"/><text x="24" y="79" fill="rgba(255,255,255,1)">  </text><rect x="44" y="64" width="60" height="20" fill="rgba(23,23,23,1)"/><text x="44" y="79" fill="rgba(154,154,154,1)" font-weight="700">1 概览</text><rect x="104" y="64" width="20" height="20" fill="rgba(23,23,23,1)"/><text x="104" y="79" fill="rgba(255,255,255,1)">  </text><rect x="124" y="64" width="60" height="20" fill="rgba(23,23,23,1)"/><text x="124" y="79" fill="rgba(154,154,154,1)" font-weight="700">2 会话</text><rect x="184" y="64" width="20" height="20" fill="rgba(23,23,23,1)"/><text x="184" y="79" fill="rgba(255,255,255,1)">  </text><rect x="204" y="64" width="60" height="20" fill="rgba(23,23,23,1)"/><text x="204" y="79" fill="rgba(154,154,154,1)" font-weight="700">3 消息</text><rect x="264" y="64" width="20" height="20" fill="rgba(23,23,23,1)"/><text x="264" y="79" fill="rgba(255,255,255,1)">  </text><rect x="284" y="64" width="60" height="20" fill="rgba(23,23,23,1)"/><text x="284" y="79" fill="rgba(154,154,154,1)" font-weight="700">4 差异</text><rect x="344" y="64" width="20" height="20" fill="rgba(23,23,23,1)"/><text x="344" y="79" fill="rgba(255,255,255,1)">  </text><rect x="364" y="64" width="60" height="20" fill="rgba(23,23,23,1)"/><text x="364" y="79" fill="rgba(154,154,154,1)" font-weight="700">5 扩展</text><rect x="424" y="64" width="10" height="20" fill="rgba(23,23,23,1)"/><text x="424" y="79" fill="rgba(255,255,255,1)"> </text><rect x="434" y="64" width="10" height="20" fill="rgba(7,89,133,1)"/><text x="434" y="79" fill="rgba(255,255,255,1)"> </text><rect x="444" y="64" width="60" height="20" fill="rgba(7,89,133,1)"/><text x="444" y="79" fill="rgba(248,250,252,1)" font-weight="700">6 设置</text><rect x="504" y="64" width="10" height="20" fill="rgba(7,89,133,1)"/><text x="504" y="79" fill="rgba(255,255,255,1)"> </text><rect x="514" y="64" width="10" height="20" fill="rgba(23,23,23,1)"/><text x="514" y="79" fill="rgba(255,255,255,1)"> </text><rect x="524" y="64" width="60" height="20" fill="rgba(23,23,23,1)"/><text x="524" y="79" fill="rgba(154,154,154,1)" font-weight="700">7 日志</text><rect x="584" y="64" width="620" height="20" fill="rgba(23,23,23,1)"/><text x="584" y="79" fill="rgba(255,255,255,1)">                                                              </text><rect x="24" y="84" width="1180" height="20" fill="rgba(23,23,23,1)"/><text x="24" y="99" fill="rgba(86,86,86,1)">──────────────────────────────────────────────────────────────────────────────────────────────────────────────────────</text><rect x="24" y="104" width="1170" height="20" fill="rgba(23,23,23,1)"/><text x="24" y="119" fill="rgba(255,255,255,1)">                                                                                                                     </text><rect x="1194" y="104" width="10" height="20" fill="rgba(37,37,39,1)"/><text x="1194" y="119" fill="rgba(154,158,163,1)">█</text><rect x="24" y="124" width="10" height="20" fill="rgba(23,23,23,1)"/><text x="24" y="139" fill="rgba(255,255,255,1)"> </text><rect x="34" y="124" width="80" height="20" fill="rgba(23,23,23,1)"/><text x="34" y="139" fill="rgba(242,242,242,1)" font-weight="700">运行设置</text><rect x="114" y="124" width="1080" height="20" fill="rgba(23,23,23,1)"/><text x="114" y="139" fill="rgba(255,255,255,1)">                                                                                                            </text><rect x="1194" y="124" width="10" height="20" fill="rgba(37,37,39,1)"/><text x="1194" y="139" fill="rgba(154,158,163,1)">█</text><rect x="24" y="144" width="1170" height="20" fill="rgba(23,23,23,1)"/><text x="24" y="159" fill="rgba(255,255,255,1)">                                                                                                                     </text><rect x="1194" y="144" width="10" height="20" fill="rgba(37,37,39,1)"/><text x="1194" y="159" fill="rgba(154,158,163,1)">█</text><rect x="24" y="164" width="10" height="20" fill="rgba(23,23,23,1)"/><text x="24" y="179" fill="rgba(255,255,255,1)"> </text><rect x="34" y="164" width="150" height="20" fill="rgba(23,23,23,1)"/><text x="34" y="179" fill="rgba(242,242,242,1)">界面语言: zh-CN</text><rect x="184" y="164" width="1010" height="20" fill="rgba(23,23,23,1)"/><text x="184" y="179" fill="rgba(255,255,255,1)">                                                                                                     </text><rect x="1194" y="164" width="10" height="20" fill="rgba(37,37,39,1)"/><text x="1194" y="179" fill="rgba(154,158,163,1)">█</text><rect x="24" y="184" width="1170" height="20" fill="rgba(23,23,23,1)"/><text x="24" y="199" fill="rgba(255,255,255,1)">                                                                                                                     </text><rect x="1194" y="184" width="10" height="20" fill="rgba(37,37,39,1)"/><text x="1194" y="199" fill="rgba(154,158,163,1)">█</text><rect x="24" y="204" width="10" height="20" fill="rgba(23,23,23,1)"/><text x="24" y="219" fill="rgba(255,255,255,1)"> </text><rect x="34" y="204" width="140" height="20" fill="rgba(23,23,23,1)"/><text x="34" y="219" fill="rgba(242,242,242,1)">界面主题: dark</text><rect x="174" y="204" width="1020" height="20" fill="rgba(23,23,23,1)"/><text x="174" y="219" fill="rgba(255,255,255,1)">                                                                                                      </text><rect x="1194" y="204" width="10" height="20" fill="rgba(37,37,39,1)"/><text x="1194" y="219" fill="rgba(154,158,163,1)">█</text><rect x="24" y="224" width="1170" height="20" fill="rgba(23,23,23,1)"/><text x="24" y="239" fill="rgba(255,255,255,1)">                                                                                                                     </text><rect x="1194" y="224" width="10" height="20" fill="rgba(37,37,39,1)"/><text x="1194" y="239" fill="rgba(154,158,163,1)">█</text><rect x="24" y="244" width="10" height="20" fill="rgba(23,23,23,1)"/><text x="24" y="259" fill="rgba(255,255,255,1)"> </text><rect x="34" y="244" width="520" height="20" fill="rgba(23,23,23,1)"/><text x="34" y="259" fill="rgba(242,242,242,1)">配置文件: /tmp/localterminal-docs-config/config.json</text><rect x="554" y="244" width="640" height="20" fill="rgba(23,23,23,1)"/><text x="554" y="259" fill="rgba(255,255,255,1)">                                                                </text><rect x="1194" y="244" width="10" height="20" fill="rgba(37,37,39,1)"/><text x="1194" y="259" fill="rgba(154,158,163,1)">█</text><rect x="24" y="264" width="1170" height="20" fill="rgba(23,23,23,1)"/><text x="24" y="279" fill="rgba(255,255,255,1)">                                                                                                                     </text><rect x="1194" y="264" width="10" height="20" fill="rgba(37,37,39,1)"/><text x="1194" y="279" fill="rgba(154,158,163,1)">█</text><rect x="24" y="284" width="10" height="20" fill="rgba(23,23,23,1)"/><text x="24" y="299" fill="rgba(255,255,255,1)"> </text><rect x="34" y="284" width="490" height="20" fill="rgba(23,23,23,1)"/><text x="34" y="299" fill="rgba(242,242,242,1)">工作区: /private/tmp/localterminal-docs-workspace</text><rect x="524" y="284" width="670" height="20" fill="rgba(23,23,23,1)"/><text x="524" y="299" fill="rgba(255,255,255,1)">                                                                   </text><rect x="1194" y="284" width="10" height="20" fill="rgba(37,37,39,1)"/><text x="1194" y="299" fill="rgba(154,158,163,1)">█</text><rect x="24" y="304" width="1170" height="20" fill="rgba(23,23,23,1)"/><text x="24" y="319" fill="rgba(255,255,255,1)">                                                                                                                     </text><rect x="1194" y="304" width="10" height="20" fill="rgba(37,37,39,1)"/><text x="1194" y="319" fill="rgba(154,158,163,1)">█</text><rect x="24" y="324" width="10" height="20" fill="rgba(23,23,23,1)"/><text x="24" y="339" fill="rgba(255,255,255,1)"> </text><rect x="34" y="324" width="250" height="20" fill="rgba(23,23,23,1)"/><text x="34" y="339" fill="rgba(242,242,242,1)">监听地址: 127.0.0.1:55302</text><rect x="284" y="324" width="910" height="20" fill="rgba(23,23,23,1)"/><text x="284" y="339" fill="rgba(255,255,255,1)">                                                                                           </text><rect x="1194" y="324" width="10" height="20" fill="rgba(37,37,39,1)"/><text x="1194" y="339" fill="rgba(154,158,163,1)">█</text><rect x="24" y="344" width="1170" height="20" fill="rgba(23,23,23,1)"/><text x="24" y="359" fill="rgba(255,255,255,1)">                                                                                                                     </text><rect x="1194" y="344" width="10" height="20" fill="rgba(37,37,39,1)"/><text x="1194" y="359" fill="rgba(154,158,163,1)">█</text><rect x="24" y="364" width="10" height="20" fill="rgba(23,23,23,1)"/><text x="24" y="379" fill="rgba(255,255,255,1)"> </text><rect x="34" y="364" width="340" height="20" fill="rgba(23,23,23,1)"/><text x="34" y="379" fill="rgba(242,242,242,1)">公网 URL: https://lite.example.com</text><rect x="374" y="364" width="820" height="20" fill="rgba(23,23,23,1)"/><text x="374" y="379" fill="rgba(255,255,255,1)">                                                                                  </text><rect x="1194" y="364" width="10" height="20" fill="rgba(37,37,39,1)"/><text x="1194" y="379" fill="rgba(154,158,163,1)">█</text><rect x="24" y="384" width="1170" height="20" fill="rgba(23,23,23,1)"/><text x="24" y="399" fill="rgba(255,255,255,1)">                                                                                                                     </text><rect x="1194" y="384" width="10" height="20" fill="rgba(37,37,39,1)"/><text x="1194" y="399" fill="rgba(154,158,163,1)">█</text><rect x="24" y="404" width="10" height="20" fill="rgba(23,23,23,1)"/><text x="24" y="419" fill="rgba(255,255,255,1)"> </text><rect x="34" y="404" width="160" height="20" fill="rgba(23,23,23,1)"/><text x="34" y="419" fill="rgba(242,242,242,1)">最大输出: 120000</text><rect x="194" y="404" width="1000" height="20" fill="rgba(23,23,23,1)"/><text x="194" y="419" fill="rgba(255,255,255,1)">                                                                                                    </text><rect x="1194" y="404" width="10" height="20" fill="rgba(37,37,39,1)"/><text x="1194" y="419" fill="rgba(154,158,163,1)">█</text><rect x="24" y="424" width="1170" height="20" fill="rgba(23,23,23,1)"/><text x="24" y="439" fill="rgba(255,255,255,1)">                                                                                                                     </text><rect x="1194" y="424" width="10" height="20" fill="rgba(37,37,39,1)"/><text x="1194" y="439" fill="rgba(154,158,163,1)">█</text><rect x="24" y="444" width="10" height="20" fill="rgba(23,23,23,1)"/><text x="24" y="459" fill="rgba(255,255,255,1)"> </text><rect x="34" y="444" width="130" height="20" fill="rgba(23,23,23,1)"/><text x="34" y="459" fill="rgba(242,242,242,1)">命令超时: 60s</text><rect x="164" y="444" width="1030" height="20" fill="rgba(23,23,23,1)"/><text x="164" y="459" fill="rgba(255,255,255,1)">                                                                                                       </text><rect x="1194" y="444" width="10" height="20" fill="rgba(37,37,39,1)"/><text x="1194" y="459" fill="rgba(154,158,163,1)">█</text><rect x="24" y="464" width="1170" height="20" fill="rgba(23,23,23,1)"/><text x="24" y="479" fill="rgba(255,255,255,1)">                                                                                                                     </text><rect x="1194" y="464" width="10" height="20" fill="rgba(37,37,39,1)"/><text x="1194" y="479" fill="rgba(154,158,163,1)">█</text><rect x="24" y="484" width="1170" height="20" fill="rgba(23,23,23,1)"/><text x="24" y="499" fill="rgba(255,255,255,1)">                                                                                                                     </text><rect x="1194" y="484" width="10" height="20" fill="rgba(37,37,39,1)"/><text x="1194" y="499" fill="rgba(154,158,163,1)">█</text><rect x="24" y="504" width="1170" height="20" fill="rgba(23,23,23,1)"/><text x="24" y="519" fill="rgba(255,255,255,1)">                                                                                                                     </text><rect x="1194" y="504" width="10" height="20" fill="rgba(37,37,39,1)"/><text x="1194" y="519" fill="rgba(154,158,163,1)">█</text><rect x="24" y="524" width="10" height="20" fill="rgba(23,23,23,1)"/><text x="24" y="539" fill="rgba(255,255,255,1)"> </text><rect x="34" y="524" width="80" height="20" fill="rgba(23,23,23,1)"/><text x="34" y="539" fill="rgba(242,242,242,1)" font-weight="700">连接凭据</text><rect x="114" y="524" width="1080" height="20" fill="rgba(23,23,23,1)"/><text x="114" y="539" fill="rgba(255,255,255,1)">                                                                                                            </text><rect x="1194" y="524" width="10" height="20" fill="rgba(37,37,39,1)"/><text x="1194" y="539" fill="rgba(154,158,163,1)">█</text><rect x="24" y="544" width="1170" height="20" fill="rgba(23,23,23,1)"/><text x="24" y="559" fill="rgba(255,255,255,1)">                                                                                                                     </text><rect x="1194" y="544" width="10" height="20" fill="rgba(37,37,39,1)"/><text x="1194" y="559" fill="rgba(154,158,163,1)">█</text><rect x="24" y="564" width="10" height="20" fill="rgba(23,23,23,1)"/><text x="24" y="579" fill="rgba(255,255,255,1)"> </text><rect x="34" y="564" width="240" height="20" fill="rgba(23,23,23,1)"/><text x="34" y="579" fill="rgba(242,242,242,1)">Apps connector: ••••••••</text><rect x="274" y="564" width="920" height="20" fill="rgba(23,23,23,1)"/><text x="274" y="579" fill="rgba(255,255,255,1)">                                                                                            </text><rect x="1194" y="564" width="10" height="20" fill="rgba(37,37,39,1)"/><text x="1194" y="579" fill="rgba(154,158,163,1)">█</text><rect x="24" y="584" width="1170" height="20" fill="rgba(23,23,23,1)"/><text x="24" y="599" fill="rgba(255,255,255,1)">                                                                                                                     </text><rect x="1194" y="584" width="10" height="20" fill="rgba(37,37,39,1)"/><text x="1194" y="599" fill="rgba(154,158,163,1)">█</text><rect x="24" y="604" width="10" height="20" fill="rgba(23,23,23,1)"/><text x="24" y="619" fill="rgba(255,255,255,1)"> </text><rect x="34" y="604" width="260" height="20" fill="rgba(23,23,23,1)"/><text x="34" y="619" fill="rgba(242,242,242,1)">Actions token: docs-a…alue</text><rect x="294" y="604" width="900" height="20" fill="rgba(23,23,23,1)"/><text x="294" y="619" fill="rgba(255,255,255,1)">                                                                                          </text><rect x="1194" y="604" width="10" height="20" fill="rgba(37,37,39,1)"/><text x="1194" y="619" fill="rgba(154,158,163,1)">█</text><rect x="24" y="624" width="1170" height="20" fill="rgba(23,23,23,1)"/><text x="24" y="639" fill="rgba(255,255,255,1)">                                                                                                                     </text><rect x="1194" y="624" width="10" height="20" fill="rgba(37,37,39,1)"/><text x="1194" y="639" fill="rgba(154,158,163,1)">█</text><rect x="24" y="644" width="10" height="20" fill="rgba(23,23,23,1)"/><text x="24" y="659" fill="rgba(255,255,255,1)"> </text><rect x="34" y="644" width="430" height="20" fill="rgba(23,23,23,1)"/><text x="34" y="659" fill="rgba(250,204,21,1)">轮换凭据会使现有 Apps 与 Actions 连接失效。</text><rect x="464" y="644" width="730" height="20" fill="rgba(23,23,23,1)"/><text x="464" y="659" fill="rgba(255,255,255,1)">                                                                         </text><rect x="1194" y="644" width="10" height="20" fill="rgba(37,37,39,1)"/><text x="1194" y="659" fill="rgba(154,158,163,1)">█</text><rect x="24" y="664" width="1170" height="20" fill="rgba(23,23,23,1)"/><text x="24" y="679" fill="rgba(255,255,255,1)">                                                                                                                     </text><rect x="1194" y="664" width="10" height="20" fill="rgba(37,37,39,1)"/><text x="1194" y="679" fill="rgba(154,158,163,1)">█</text><rect x="24" y="684" width="1170" height="20" fill="rgba(23,23,23,1)"/><text x="24" y="699" fill="rgba(255,255,255,1)">                                                                                                                     </text><rect x="1194" y="684" width="10" height="20" fill="rgba(37,37,39,1)"/><text x="1194" y="699" fill="rgba(154,158,163,1)">█</text><rect x="24" y="704" width="10" height="20" fill="rgba(41,41,41,1)"/><text x="24" y="719" fill="rgba(255,255,255,1)"> </text><rect x="34" y="704" width="600" height="20" fill="rgba(41,41,41,1)"/><text x="34" y="719" fill="rgba(242,242,242,1)" font-weight="700">滚轮/↑↓ 滚动   c 修改配置   v 显示凭据   k 轮换凭据   q 退出</text><rect x="634" y="704" width="570" height="20" fill="rgba(41,41,41,1)"/><text x="634" y="719" fill="rgba(255,255,255,1)">                                                         </text></g>
</svg>
